<svg xmlns="http://www.w3.org/2000/svg" xmlns:xlink="http://www.w3.org/1999/xlink" xml:space="preserve" version="1.1" style="shape-rendering:geometricPrecision;text-rendering:geometricPrecision;image-rendering:optimizeQuality;" viewBox="0 0 333 416.25" x="0px" y="0px" fill-rule="evenodd" clip-rule="evenodd"><defs><style type="text/css">
   
    .fil0 {fill:black}
   
  </style></defs><g><path class="fil0" d="M26 90l81 0 8 -31c2,-5 4,-9 7,-9l89 0c4,0 6,4 7,9l8 31 81 0c10,0 18,9 18,18l0 157c0,10 -8,18 -18,18l-281 0c-10,0 -18,-8 -18,-18l0 -157c0,-9 8,-18 18,-18zm12 18c5,0 10,4 10,10 0,6 -5,10 -10,10 -6,0 -11,-4 -11,-10 0,-6 5,-10 11,-10zm129 35c23,0 43,19 43,43 0,23 -20,43 -43,43 -24,0 -43,-20 -43,-43 0,-24 19,-43 43,-43zm0 -28c39,0 70,32 70,71 0,39 -31,70 -70,70 -39,0 -71,-31 -71,-70 0,-39 32,-71 71,-71z"/></g><text x="0" y="348" fill="#000000" font-size="5px" font-weight="bold" font-family="'Helvetica Neue', Helvetica, Arial-Unicode, Arial, Sans-serif">Created by ishanda</text><text x="0" y="353" fill="#000000" font-size="5px" font-weight="bold" font-family="'Helvetica Neue', Helvetica, Arial-Unicode, Arial, Sans-serif">from the Noun Project</text></svg>