<?xml version="1.0" standalone="no"?>
<!DOCTYPE svg PUBLIC "-//W3C//DTD SVG 20010904//EN"
 "http://www.w3.org/TR/2001/REC-SVG-20010904/DTD/svg10.dtd">
<svg version="1.0" xmlns="http://www.w3.org/2000/svg"
 width="1200.000000pt" height="926.000000pt" viewBox="0 0 1200.000000 926.000000"
 preserveAspectRatio="xMidYMid meet">

<g transform="translate(0.000000,926.000000) scale(0.100000,-0.100000)"
fill="#000000" stroke="none">
<path d="M8222 9228 c-256 -32 -589 -163 -837 -329 -574 -385 -885 -969 -800
-1499 48 -291 202 -551 434 -732 36 -29 70 -55 75 -59 5 -4 -31 3 -80 17 -49
13 -279 77 -512 141 l-423 117 -126 -23 c-525 -96 -1071 -283 -1326 -455 l-69
-46 -146 46 c-225 70 -578 170 -667 190 -120 26 -349 24 -481 -4 -338 -72
-704 -267 -1139 -605 -371 -289 -1340 -1134 -1415 -1234 -79 -106 -136 -263
-108 -301 7 -10 420 -506 918 -1101 498 -596 907 -1087 908 -1092 2 -5 -472
-9 -1197 -9 -755 0 -1202 -4 -1206 -10 -3 -5 102 -90 234 -189 131 -99 242
-184 244 -188 3 -5 -57 -260 -134 -567 -77 -306 -137 -561 -134 -567 4 -5 170
-9 411 -9 269 0 404 -3 404 -10 0 -6 -36 -155 -80 -332 -45 -177 -79 -327 -76
-335 5 -11 755 -13 4521 -13 l4515 0 10 23 c5 12 41 150 80 307 39 157 75 302
81 322 l10 38 667 2 c568 3 667 5 667 17 0 8 -124 95 -275 193 -151 98 -278
184 -283 190 -4 7 55 260 132 563 76 303 136 553 134 558 -2 4 -517 7 -1144 7
l-1139 0 0 34 c0 19 14 281 30 583 17 301 32 580 33 618 2 77 -6 96 -74 197
-22 32 -39 59 -39 61 0 1 33 0 73 -4 164 -17 477 -21 647 -10 601 40 1080 189
1500 465 306 202 526 429 765 791 151 230 169 259 153 249 -7 -4 -83 -53 -168
-109 -373 -243 -588 -348 -921 -448 -211 -65 -576 -127 -740 -127 l-56 0 146
148 c303 304 549 695 740 1177 58 146 274 785 267 792 -1 1 -81 -106 -177
-240 -95 -133 -217 -296 -270 -362 -107 -132 -254 -290 -245 -263 18 58 47
246 55 355 36 473 -114 919 -409 1213 -395 396 -954 473 -1727 239 -302 -92
-435 -113 -569 -90 -254 43 -337 218 -218 461 43 86 167 219 269 285 147 97
353 159 586 177 l146 12 -48 101 c-96 202 -136 419 -108 593 l15 92 -116 -1
c-63 -1 -148 -6 -188 -11z m8 -172 c0 -2 -9 -23 -19 -47 -28 -62 -54 -186 -48
-223 l5 -31 -80 -23 c-237 -66 -467 -220 -603 -404 l-43 -58 -36 40 c-41 46
-46 33 -16 -39 l21 -47 -29 -65 c-16 -35 -34 -81 -41 -101 -7 -21 -17 -38 -22
-38 -19 0 -89 40 -124 71 -40 36 -42 33 -15 -20 18 -36 103 -121 121 -121 5 0
7 -40 6 -90 l-2 -90 -65 0 c-36 1 -88 9 -118 19 l-53 18 28 -29 c35 -37 115
-75 175 -84 43 -6 48 -9 59 -43 6 -20 24 -60 40 -89 l30 -53 -53 -24 c-29 -14
-69 -27 -88 -31 -58 -9 -68 -15 -45 -24 34 -14 140 -11 193 6 l50 16 39 -30
c21 -17 59 -41 86 -52 26 -12 47 -23 47 -26 0 -19 -34 -79 -65 -113 -23 -25
-32 -41 -23 -41 27 0 103 57 132 98 22 32 34 41 50 37 11 -2 60 -7 109 -10 57
-5 87 -11 87 -19 0 -6 -7 -38 -15 -70 -9 -33 -13 -61 -11 -63 9 -10 60 79 65
115 6 35 9 38 51 45 136 25 256 56 435 114 445 143 695 179 972 137 287 -42
529 -186 705 -418 122 -161 185 -338 195 -546 10 -198 -22 -360 -110 -564
-210 -491 -634 -882 -1138 -1050 -342 -115 -1006 -40 -1441 162 l-88 41 0 54
c0 40 -6 63 -23 88 -12 19 -101 91 -197 161 -96 71 -246 180 -333 244 l-157
116 46 87 c94 175 236 340 349 407 l48 27 106 -16 c58 -9 129 -19 156 -22 78
-10 77 -8 39 -82 -25 -48 -36 -86 -40 -128 l-5 -60 24 50 c30 62 79 124 132
165 42 34 28 33 185 14 l49 -6 -25 -36 c-51 -76 -78 -222 -55 -302 7 -23 8
-23 13 -5 4 11 10 36 13 55 19 96 159 289 201 277 11 -3 63 -8 117 -12 83 -6
97 -9 93 -22 -36 -93 -33 -221 6 -303 14 -30 33 -64 43 -75 l17 -20 -7 20
c-14 41 -17 157 -6 216 7 33 24 87 38 120 l26 59 83 0 83 0 37 -71 c70 -132
180 -224 294 -244 l35 -6 -30 22 c-60 44 -147 143 -174 198 -48 95 -48 96 4
111 25 7 57 21 69 31 24 19 25 18 91 -12 87 -41 179 -49 256 -23 l54 18 -69 8
c-74 9 -166 42 -222 80 -29 19 -33 27 -28 48 17 69 25 150 19 193 l-7 49 -18
-29 c-80 -129 -237 -174 -610 -174 -272 0 -462 28 -681 101 -343 114 -574 302
-737 600 -87 160 -122 334 -102 503 50 427 348 854 785 1127 167 104 411 206
586 244 63 14 119 20 119 12z m162 -103 c-4 -110 15 -207 62 -309 20 -42 35
-78 33 -80 -1 -2 -28 9 -59 23 -74 33 -83 57 -83 218 1 100 5 129 24 178 12
31 23 57 24 57 1 0 1 -39 -1 -87z m-1823 -2379 c278 -81 508 -148 510 -150 2
-1 -87 -102 -198 -223 l-201 -220 -37 5 c-262 36 -597 138 -833 254 -55 27
-55 27 -134 12 l-78 -14 121 -81 121 -80 -48 -28 c-27 -15 -71 -54 -99 -86
-56 -65 -126 -164 -120 -170 2 -2 30 3 63 12 81 21 92 20 211 -20 157 -53 290
-125 353 -191 l53 -56 -6 -64 c-4 -59 8 -134 22 -134 3 0 21 26 40 58 115 192
272 322 386 322 56 -1 82 -15 424 -232 250 -159 307 -199 317 -225 l13 -31
-80 -46 c-148 -86 -293 -250 -368 -417 -29 -65 -71 -215 -71 -255 0 -12 -6
-26 -12 -32 -17 -13 -705 236 -752 272 -45 34 -67 85 -65 149 2 51 -21 127
-39 127 -4 0 -24 -32 -43 -71 -30 -64 -34 -80 -34 -154 0 -78 2 -85 31 -122
45 -55 93 -76 355 -153 129 -38 285 -87 347 -109 124 -45 209 -54 249 -26 20
14 30 10 145 -45 67 -33 170 -77 228 -99 58 -22 102 -40 98 -41 -3 0 -84 15
-180 34 -546 108 -822 134 -939 88 -52 -21 -139 -84 -139 -101 0 -5 84 -11
188 -14 324 -10 525 -47 634 -116 78 -49 217 -204 388 -430 24 -31 36 -36 320
-112 162 -43 296 -79 298 -79 1 0 2 8 2 18 0 10 -24 53 -53 95 -83 121 -218
252 -307 297 -30 15 -39 28 -48 62 -6 23 -9 44 -7 46 4 5 150 -86 221 -139
268 -197 353 -458 166 -508 -75 -21 -77 -26 -74 -153 4 -124 -4 -157 -46 -202
-33 -34 -49 -41 -163 -66 -154 -33 -259 -88 -705 -366 -148 -93 -333 -201
-411 -241 l-143 -73 -374 0 -375 0 -10 38 c-26 99 -52 206 -70 291 -33 150
-44 166 -194 283 -282 219 -491 403 -718 634 -178 182 -238 251 -336 384 -155
211 -222 352 -230 485 -6 89 11 170 112 535 29 107 81 302 115 433 l61 239
-46 49 -46 49 -10 -28 c-71 -183 -358 -1040 -379 -1131 -74 -323 258 -879 897
-1502 88 -85 233 -218 324 -296 l165 -142 67 -154 c37 -86 67 -158 67 -161 0
-3 -25 -6 -56 -6 -42 0 -102 15 -235 60 -454 151 -864 222 -1294 223 -435 0
-765 -62 -1114 -210 -100 -43 -105 -44 -121 -26 -10 10 -415 484 -900 1053
-486 569 -906 1061 -933 1093 -49 57 -50 59 -39 96 23 75 92 150 360 389 823
733 1188 1026 1552 1247 346 210 666 304 935 274 135 -14 361 -73 696 -179
l281 -90 78 58 c81 62 239 147 380 205 228 94 649 210 1009 276 2 1 232 -65
510 -145z m3841 -234 c-16 -141 -56 -326 -96 -448 -44 -134 -135 -324 -204
-429 -47 -70 -64 -87 -139 -135 -47 -30 -117 -72 -156 -92 l-70 -38 40 33
c374 313 595 792 623 1349 l7 145 3 -145 c2 -80 -2 -188 -8 -240z m47 328 c-3
-8 -6 -5 -6 6 -1 11 2 17 5 13 3 -3 4 -12 1 -19z m39 -193 c12 -91 15 -165 11
-305 -6 -179 -11 -214 -63 -453 -4 -16 -27 -44 -55 -68 l-48 -40 30 82 c83
229 113 428 105 699 -3 107 -8 211 -11 230 -5 35 -5 35 5 5 6 -16 17 -84 26
-150z m-4308 -584 c66 -32 147 -69 181 -82 33 -13 61 -27 61 -31 0 -3 -21 -15
-47 -25 -99 -37 -246 -12 -303 53 -26 30 -30 43 -30 89 0 30 4 55 9 55 6 0 64
-26 129 -59z m4516 -198 c-80 -182 -280 -507 -420 -683 -153 -191 -384 -398
-584 -520 -656 -401 -1524 -411 -2429 -28 l-143 61 6 39 c10 63 62 187 106
254 44 67 161 184 211 209 30 16 34 15 114 -19 271 -116 555 -188 860 -217
156 -14 468 -7 608 16 589 93 1082 351 1559 815 73 71 134 129 135 130 2 0 -9
-26 -23 -57z m606 -1069 c-326 -331 -781 -567 -1290 -668 -270 -54 -350 -61
-730 -61 -381 0 -490 9 -800 61 -150 26 -456 98 -375 89 22 -2 83 -9 135 -16
143 -16 493 -14 635 6 312 42 590 135 847 283 l103 59 195 6 c455 14 918 115
1260 275 36 17 69 31 75 31 5 1 -20 -29 -55 -65z m-2603 -1216 c-3 -8 -6 -5
-6 6 -1 11 2 17 5 13 3 -3 4 -12 1 -19z m-32 -501 c-15 -243 -29 -443 -30
-445 -1 -2 -29 6 -61 17 -236 79 -657 36 -1133 -114 -58 -19 -107 -32 -109
-31 -4 4 128 53 274 100 287 93 523 139 724 139 74 0 155 -5 180 -11 24 -6 45
-10 47 -9 1 2 30 189 65 416 35 227 65 406 66 397 2 -10 -8 -216 -23 -459z
m-7180 -921 c37 -16 55 -42 55 -81 0 -35 -117 -501 -134 -534 -21 -40 -57 -68
-104 -82 -29 -8 -41 -17 -38 -26 3 -8 20 -59 37 -115 23 -74 40 -111 66 -139
l35 -39 -160 0 -160 0 -16 53 c-8 28 -28 98 -43 155 -28 103 -28 103 -57 100
-29 -3 -30 -5 -58 -117 l-29 -114 19 -38 19 -39 -158 0 c-101 0 -159 4 -159
10 0 6 50 208 110 450 106 425 122 510 100 551 -10 19 -4 19 315 19 258 0 333
-3 360 -14z m961 -12 c15 -11 31 -32 35 -46 8 -32 -188 -828 -216 -876 -11
-18 -39 -42 -65 -55 -43 -21 -57 -22 -295 -22 -311 0 -335 7 -335 100 0 20 45
214 100 430 55 217 100 404 100 415 0 12 -7 34 -15 51 l-16 30 340 -3 c325 -3
341 -4 367 -24z m909 10 c57 -27 62 -57 31 -189 l-28 -115 -130 0 -130 0 6 45
7 45 -95 0 c-53 0 -96 -4 -96 -9 0 -5 -3 -22 -6 -39 -6 -29 1 -36 172 -177 99
-82 183 -152 188 -156 13 -11 -63 -304 -88 -341 -11 -17 -39 -41 -61 -52 -38
-20 -59 -21 -353 -24 l-313 -4 7 29 c4 15 22 84 39 153 l31 125 132 3 132 3
-6 -41 -7 -40 77 0 c89 0 111 9 120 47 4 16 9 35 12 44 3 12 -50 62 -181 173
-102 86 -185 164 -185 172 0 8 14 69 30 134 34 134 37 176 14 208 l-15 22 331
0 c281 0 337 -2 365 -16z m956 -7 c30 -20 34 -28 36 -72 1 -28 -8 -88 -20
-135 l-22 -85 -133 -3 -133 -3 7 26 c15 61 17 60 -82 63 l-91 3 -17 -68 c-9
-37 -19 -76 -22 -85 -5 -16 5 -18 114 -18 l120 0 -20 -77 c-10 -43 -24 -95
-29 -115 l-10 -38 -119 0 c-133 0 -120 8 -140 -85 -6 -27 -13 -58 -16 -67 -5
-16 3 -18 76 -18 95 0 115 8 123 50 l7 30 130 0 c89 0 130 -4 130 -11 0 -26
-54 -205 -68 -227 -8 -13 -33 -33 -56 -45 -39 -21 -54 -22 -353 -25 -172 -2
-313 -2 -313 1 0 2 52 215 116 473 115 464 116 469 101 512 l-15 42 333 0
c329 0 332 0 366 -23z m1055 6 c-3 -10 -24 -92 -46 -183 -22 -91 -43 -173 -46
-182 -5 -16 4 -18 90 -18 l95 0 10 38 c5 20 24 97 41 170 l32 134 -21 29 -22
29 161 0 c88 0 160 -3 160 -7 0 -5 -52 -213 -115 -464 -63 -251 -115 -471
-115 -490 0 -18 7 -41 17 -51 16 -17 10 -18 -146 -18 -150 0 -162 1 -157 18 3
9 24 91 46 182 22 91 43 173 46 183 5 15 -4 17 -90 17 l-95 0 -9 -32 c-5 -18
-24 -95 -42 -170 l-34 -138 22 -30 23 -30 -161 0 c-121 0 -160 3 -160 13 0 6
52 216 115 466 63 250 115 468 115 485 0 16 -7 38 -17 48 -16 17 -10 18 146
18 150 0 162 -1 157 -17z m878 -355 c-51 -205 -94 -383 -94 -394 0 -28 17 -34
101 -34 63 0 70 2 78 23 4 12 47 178 96 368 85 334 87 348 72 378 l-15 31 154
0 c85 0 154 -2 154 -5 0 -3 -52 -212 -115 -465 -63 -253 -115 -469 -115 -480
0 -12 7 -34 15 -50 l16 -30 -303 0 c-173 0 -319 4 -339 10 -47 13 -85 52 -93
94 -5 24 21 142 94 435 55 221 100 412 100 424 0 12 -7 33 -16 45 l-15 22 159
0 160 0 -94 -372z m1066 362 c0 -6 -43 -181 -95 -390 -52 -209 -95 -384 -95
-390 0 -11 147 -14 174 -4 8 3 18 21 22 40 l6 34 133 0 133 0 -24 -100 c-13
-56 -28 -109 -34 -119 -18 -35 -70 -69 -120 -80 -76 -16 -610 -15 -610 2 0 6
52 225 117 485 116 465 118 473 101 502 l-17 30 154 0 c99 0 155 -4 155 -10z
m940 -242 l0 -251 100 202 c99 200 112 241 90 282 -10 19 -5 19 210 19 121 0
220 -3 220 -7 0 -5 -54 -221 -119 -481 l-119 -472 18 -35 18 -35 -160 0 c-147
0 -159 1 -154 18 6 21 95 369 102 397 2 11 -45 -78 -106 -198 l-110 -218 -103
3 -102 3 0 217 c0 119 -3 211 -6 205 -4 -7 -26 -92 -50 -189 l-43 -177 22 -31
23 -30 -161 0 c-116 0 -160 3 -160 12 0 6 52 216 115 465 63 249 115 468 115
485 0 17 -7 40 -17 50 -16 17 -9 18 180 18 l197 0 0 -252z m1541 214 c16 -18
29 -41 29 -52 0 -11 -47 -209 -105 -440 -58 -231 -105 -428 -105 -439 0 -10 7
-24 15 -31 8 -7 15 -16 15 -21 0 -5 -70 -9 -155 -9 -102 0 -155 4 -155 11 0 5
16 73 35 149 19 76 35 141 35 144 0 4 -42 6 -94 6 l-94 0 -26 -105 c-30 -121
-32 -152 -10 -183 l15 -22 -161 0 -160 0 5 23 c2 12 54 221 115 464 60 244
110 453 110 465 0 13 -7 36 -15 51 l-14 28 345 -3 346 -3 29 -33z m572 -64 c9
-57 24 -158 34 -225 10 -68 20 -123 23 -123 3 0 27 88 54 196 l49 196 -22 29
-22 29 161 0 c88 0 160 -2 160 -5 0 -3 -52 -213 -116 -468 -64 -254 -117 -474
-117 -489 0 -15 8 -37 18 -48 18 -20 18 -20 -143 -20 -89 0 -162 1 -162 3 0
12 -70 460 -72 462 -2 2 -25 -88 -52 -200 -47 -195 -49 -205 -33 -229 10 -14
17 -28 17 -31 0 -3 -70 -5 -155 -5 -98 0 -155 4 -155 10 0 6 52 217 115 470
63 253 115 472 115 487 0 14 -7 35 -17 45 -16 17 -10 18 144 18 l160 0 16
-102z m-5549 -385 c-7 -32 -19 -84 -25 -115 l-12 -58 -208 0 c-161 0 -209 3
-209 13 0 6 10 58 22 115 l23 102 211 0 212 0 -14 -57z m-3204 -940 c0 -10 -5
-35 -11 -55 -10 -37 -11 -38 -59 -38 -38 0 -50 4 -50 15 0 11 -11 15 -39 15
-32 0 -40 -4 -45 -22 -9 -37 -8 -38 39 -38 25 0 45 -2 45 -5 0 -3 -7 -21 -14
-40 -14 -33 -18 -35 -60 -35 -31 0 -46 -4 -46 -13 0 -7 -7 -37 -15 -65 l-16
-52 -49 0 c-28 0 -50 3 -50 6 0 3 16 65 36 137 25 96 33 142 29 169 l-7 38
156 0 c142 0 156 -2 156 -17z m380 12 c0 -2 -15 -62 -34 -132 -19 -70 -40
-147 -46 -170 l-11 -43 -49 0 c-28 0 -50 4 -50 10 0 5 16 67 35 138 24 90 33
139 28 165 l-6 37 67 0 c36 0 66 -2 66 -5z m540 -6 c0 -5 -5 -30 -11 -55 l-11
-44 -49 0 c-37 0 -49 4 -49 15 0 23 -77 21 -84 -2 -15 -50 -46 -169 -46 -175
0 -5 18 -8 40 -8 22 0 40 4 40 9 0 5 3 16 6 24 4 11 -2 17 -18 19 -22 3 -24 6
-16 36 l9 32 75 0 76 0 -7 -30 c-4 -17 -15 -58 -24 -93 l-18 -62 -121 -3
c-119 -3 -121 -2 -137 22 -15 23 -14 32 16 148 30 113 36 126 67 151 34 26 40
27 149 27 73 0 113 -4 113 -11z m372 5 c4 -3 -2 -35 -12 -70 l-17 -64 41 0 42
0 18 70 18 70 49 0 c27 0 49 -3 49 -7 0 -9 -68 -268 -81 -310 -10 -31 -13 -33
-60 -33 -27 0 -49 4 -49 8 0 5 7 31 15 58 20 66 20 64 -25 64 -42 0 -40 4 -66
-102 -6 -26 -10 -28 -60 -28 -38 0 -52 4 -49 12 2 7 20 71 39 141 25 94 32
136 26 157 -4 16 -6 31 -2 34 7 8 117 8 124 0z m731 -1 c2 -5 0 -23 -5 -40 -8
-32 -10 -33 -61 -33 l-53 0 -35 -132 -35 -133 -53 -3 c-47 -3 -52 -1 -47 15 2
10 17 63 31 118 15 55 29 108 31 118 5 15 -2 17 -51 17 -48 0 -56 3 -51 16 3
9 9 27 12 40 l6 24 153 0 c85 0 156 -3 158 -7z m307 0 c0 -9 -68 -268 -81
-310 -10 -31 -13 -33 -60 -33 -27 0 -49 3 -49 6 0 3 16 65 36 137 25 96 33
142 29 169 l-7 38 66 0 c36 0 66 -3 66 -7z m394 -78 c21 -87 18 -89 51 28 l16
57 43 0 c23 0 45 -3 48 -6 6 -5 -2 -38 -63 -266 l-21 -78 -52 0 -52 0 -13 63
c-19 97 -26 99 -47 13 l-18 -76 -54 0 c-40 0 -53 3 -49 13 25 66 68 258 64
289 -3 20 -2 39 1 43 3 3 33 5 66 3 l60 -3 20 -80z m468 79 c5 -5 -7 -62 -14
-69 -2 -2 -27 -10 -56 -19 l-53 -15 7 32 c15 71 20 77 67 77 24 0 46 -3 49 -6z
m683 -26 c-16 -74 -20 -78 -76 -78 -42 0 -50 3 -45 16 5 12 -2 15 -36 12 -36
-3 -43 -7 -49 -30 -7 -28 -6 -28 38 -28 l45 0 -7 -32 c-10 -47 -12 -48 -60
-48 -30 0 -45 -5 -49 -16 -13 -35 -7 -44 34 -44 29 0 40 4 40 15 0 11 13 15
54 15 l54 0 -14 -47 c-8 -25 -16 -48 -18 -50 -2 -2 -66 -2 -143 -1 l-139 3 37
138 c27 102 35 146 29 167 -4 16 -6 31 -2 34 3 3 75 6 159 6 l155 0 -7 -32z
m395 -38 c9 -36 19 -72 22 -80 2 -8 13 21 24 65 l20 80 38 3 c75 6 75 31 -5
-270 l-21 -78 -52 0 -52 0 -13 63 c-19 97 -26 99 -47 13 l-18 -76 -54 0 c-40
0 -53 3 -49 13 25 66 68 258 64 289 -3 20 -2 39 1 43 3 3 33 5 66 3 l60 -3 16
-65z m710 59 c0 -5 -5 -30 -11 -55 l-11 -44 -49 0 c-37 0 -49 4 -49 15 0 11
-11 15 -40 15 -38 0 -40 -1 -50 -42 -6 -24 -18 -66 -26 -95 -7 -28 -14 -54
-14 -57 0 -3 18 -6 39 -6 26 0 41 5 45 16 10 26 7 34 -14 34 -21 0 -24 10 -14
48 6 20 12 22 81 22 l75 0 -7 -30 c-4 -17 -15 -58 -24 -93 l-18 -62 -121 -3
c-119 -3 -121 -2 -137 22 -15 23 -14 32 16 145 28 106 36 125 66 151 33 30 35
30 148 30 74 0 115 -4 115 -11z m373 4 c2 -5 -16 -83 -41 -175 l-45 -168 -52
0 -52 0 38 140 c28 105 35 148 29 169 -4 16 -6 32 -2 35 8 9 120 7 125 -1z
m376 -10 c5 -10 14 -44 21 -75 7 -32 16 -58 20 -58 4 0 13 26 20 58 19 86 24
92 75 92 36 0 45 -3 44 -17 0 -10 -19 -88 -42 -173 l-42 -155 -52 -3 c-58 -3
-51 -14 -76 102 l-13 59 -11 -39 c-7 -22 -17 -58 -23 -81 l-11 -43 -49 0 c-28
0 -50 4 -50 10 0 5 16 67 35 137 25 91 33 137 29 165 l-7 38 61 0 c48 0 63 -4
71 -17z m736 -15 c-16 -74 -20 -78 -74 -78 -42 0 -49 3 -44 16 5 13 -2 15 -38
12 -37 -3 -44 -7 -50 -30 -7 -28 -6 -28 38 -28 l45 0 -7 -32 c-10 -47 -12 -48
-60 -48 -30 0 -45 -5 -49 -16 -13 -35 -7 -44 34 -44 29 0 40 4 40 15 0 11 13
15 54 15 l54 0 -14 -47 c-8 -25 -16 -48 -18 -50 -2 -2 -66 -2 -143 -1 l-139 3
37 138 c27 102 35 146 29 167 -4 16 -6 31 -2 34 3 3 75 6 159 6 l155 0 -7 -32z
m557 26 c3 -3 0 -26 -6 -52 l-12 -47 -53 -3 c-45 -3 -53 -1 -48 12 5 13 -2 16
-38 16 -32 0 -45 -4 -45 -14 0 -8 -3 -21 -6 -30 -5 -13 2 -16 40 -16 50 0 51
-2 35 -48 -10 -28 -15 -31 -57 -34 -40 -3 -47 -6 -53 -30 -7 -27 -6 -28 32
-28 26 0 42 5 45 15 4 11 21 15 55 15 54 0 55 -2 37 -61 l-11 -39 -144 0
c-133 0 -144 1 -139 18 44 147 67 252 63 283 -3 21 -2 40 1 43 7 8 297 8 304
0z m533 -20 c15 -24 16 -33 4 -87 -9 -46 -20 -66 -45 -90 -19 -16 -32 -33 -30
-36 2 -3 11 -30 19 -59 l16 -52 -58 0 -58 0 -18 60 c-10 33 -24 60 -31 60 -6
0 -18 -26 -26 -57 l-14 -58 -53 -3 c-47 -3 -52 -1 -47 15 46 162 67 259 61
294 l-7 39 135 0 c134 0 135 0 152 -26z m570 -6 c-16 -74 -20 -78 -74 -78 -42
0 -49 3 -44 16 5 13 -2 15 -38 12 -37 -3 -44 -7 -50 -30 l-7 -28 66 0 c60 -1
69 -3 86 -26 17 -24 17 -29 2 -82 -25 -91 -45 -102 -192 -102 l-122 0 12 48
12 47 53 3 c45 3 53 1 48 -12 -5 -13 2 -16 38 -16 32 0 45 4 45 14 0 8 3 21 6
30 5 14 -4 16 -59 16 -61 0 -67 2 -86 28 -19 28 -19 30 -3 85 13 42 26 63 51
82 33 23 43 25 149 25 l114 0 -7 -32z"/>
<path d="M3145 6201 c-95 -25 -134 -40 -250 -99 -250 -126 -397 -242 -1310
-1036 -470 -409 -515 -452 -544 -529 l-21 -58 22 -29 c71 -89 894 -1028 897
-1024 3 2 8 28 12 57 l7 52 -370 494 -370 493 19 27 c22 30 83 72 298 205 565
351 1078 591 1475 690 293 72 611 76 771 8 l41 -18 -166 -113 c-91 -63 -172
-121 -179 -129 -23 -29 -13 -148 22 -252 33 -98 175 -393 236 -490 l35 -55 0
46 c1 185 140 591 385 1125 47 101 85 188 85 193 0 13 -193 182 -288 253 -86
64 -221 137 -297 162 -147 47 -381 60 -510 27z m328 -146 c93 -16 199 -64 314
-142 46 -30 83 -57 83 -59 0 -2 -38 15 -84 37 -167 80 -414 110 -582 69 -196
-47 -339 -121 -994 -519 -57 -34 9 16 238 184 418 304 549 384 694 425 78 23
222 25 331 5z"/>
<path d="M2196 3159 c4 -8 127 -149 273 -314 146 -165 266 -301 267 -303 1 -2
44 18 94 43 327 164 746 220 1195 160 l40 -6 -45 41 c-56 51 -63 54 -182 74
-314 54 -734 35 -968 -43 l-85 -29 -30 21 c-16 12 -135 97 -262 189 -158 113
-245 169 -269 174 -30 5 -35 4 -28 -7z"/>
<path d="M1061 1733 c-29 -112 -51 -203 -51 -213 0 -7 29 -10 93 -8 l92 3 27
100 c14 55 27 112 27 128 l1 27 -90 0 -89 0 -10 -37z"/>
<path d="M2001 1733 c-78 -296 -127 -513 -118 -522 6 -6 46 -11 89 -11 72 0
79 2 88 23 16 39 130 495 130 522 0 25 0 25 -90 25 l-89 0 -10 -37z"/>
<path d="M9316 1653 c-16 -65 -31 -124 -34 -130 -3 -10 19 -13 92 -13 l95 0
11 43 c6 23 20 75 31 115 29 108 33 102 -74 102 l-93 0 -28 -117z"/>
<path d="M8996 488 c-13 -48 -8 -58 28 -58 39 0 41 2 51 48 7 32 6 32 -33 32
-33 0 -41 -4 -46 -22z"/>
</g>
</svg>
