<svg xmlns="http://www.w3.org/2000/svg" xmlns:xlink="http://www.w3.org/1999/xlink" version="1.1" x="0px" y="0px" viewBox="0 0 100 125" style="enable-background:new 0 0 100 100;" xml:space="preserve"><polygon points="41,82.4 31.9,89 35.2,94.1 52.1,83.4 53.2,82.7 53.5,78.7 54.6,60.8 43.9,81.6 "/><polygon points="65.8,32.5 53.7,30.5 51.7,30.2 49.9,30.4 36.9,32 36.9,32 28,30.6 22.5,15.9 17.6,17.7 23.3,32.9 25,37.3   28.9,37.9 37.9,39.4 41,64.7 41.1,64.7 35.1,76.2 22.7,80.6 24.5,86.5 41.2,81.7 42.5,81.3 43.4,81 46.1,75.9 52.8,62.8 54.4,59.7   54.5,59.6 54.3,53.9 53.9,37.7 59.3,38.6 62.7,39.2 66.6,37.7 81.3,32.1 79.5,27.3 "/><circle cx="44.5" cy="22.7" r="6.7"/><circle cx="75.6" cy="12.6" r="6.7"/><text x="0" y="115" fill="#000000" font-size="5px" font-weight="bold" font-family="'Helvetica Neue', Helvetica, Arial-Unicode, Arial, Sans-serif">Created by Hoeda</text><text x="0" y="120" fill="#000000" font-size="5px" font-weight="bold" font-family="'Helvetica Neue', Helvetica, Arial-Unicode, Arial, Sans-serif">from the Noun Project</text></svg>